<?xml version="1.0" standalone="no"?>
<!DOCTYPE svg PUBLIC "-//W3C//DTD SVG 20010904//EN"
 "http://www.w3.org/TR/2001/REC-SVG-20010904/DTD/svg10.dtd">
<svg version="1.0" xmlns="http://www.w3.org/2000/svg"
 width="800.000000pt" height="800.000000pt" viewBox="0 0 800.000000 800.000000"
 preserveAspectRatio="xMidYMid meet">
<metadata>
Created by potrace 1.11, written by Peter Selinger 2001-2013
</metadata>
<g transform="translate(0.000000,800.000000) scale(0.100000,-0.100000)"
fill="#000000" stroke="none">
<path d="M0 4000 l0 -4000 4000 0 4000 0 0 4000 0 4000 -4000 0 -4000 0 0
-4000z m1850 1820 l0 -110 -395 0 -395 0 0 -2025 0 -2025 395 0 395 0 0 -110
0 -110 -515 0 -515 0 0 2245 0 2245 515 0 515 0 0 -110z m5340 -2135 l0 -2245
-520 0 -520 0 0 110 0 110 400 0 400 0 0 2025 0 2025 -400 0 -400 0 0 110 0
110 520 0 520 0 0 -2245z m-2520 1780 l0 -115 -1000 0 -1000 0 0 -635 0 -635
795 0 795 0 0 -120 0 -120 -795 0 -795 0 0 -780 0 -780 -125 0 -125 0 0 1650
0 1650 1125 0 1125 0 0 -115z m920 -1535 l0 -1650 -125 0 -125 0 0 1650 0
1650 125 0 125 0 0 -1650z"/>
</g>
</svg>
